HIERARCHY
ROOT SpineBase
{
  OFFSET 0.000000 0.000000 0.000000
  CHANNELS 6 Xposition Yposition Zposition Zrotation Xrotation Yrotation
  JOINT SpineMid
  {
    OFFSET -0.000000 32.345361 0.000000
    CHANNELS 3 Zrotation Xrotation Yrotation
    JOINT SpineShoulder
    {
      OFFSET -0.045301 24.065674 -0.692735
      CHANNELS 3 Zrotation Xrotation Yrotation
      JOINT Neck
      {
        OFFSET 0.012553 7.913518 -0.511434
        CHANNELS 3 Zrotation Xrotation Yrotation
        JOINT Head
        {
          OFFSET 4.748415 11.364034 7.629219
          CHANNELS 3 Zrotation Xrotation Yrotation
          End Site
          {
            OFFSET 0 0 0
          }
        }
      }
      JOINT ShoulderLeft
      {
        OFFSET -3.433702 -4.815000 -15.042491
        CHANNELS 3 Zrotation Xrotation Yrotation
        JOINT ElbowLeft
        {
          OFFSET -6.119780 -24.642164 -7.984476
          CHANNELS 3 Zrotation Xrotation Yrotation
          JOINT WristLeft
          {
            OFFSET 3.356594 -25.086877 -3.614006
            CHANNELS 3 Zrotation Xrotation Yrotation
            JOINT HandLeft
            {
              OFFSET -0.854219 -8.123487 1.355100
              CHANNELS 3 Zrotation Xrotation Yrotation
              JOINT HandTipLeft
              {
                OFFSET 0.094450 -6.288909 0.011506
                CHANNELS 3 Zrotation Xrotation Yrotation
                End Site
                {
                  OFFSET 0 0 0
                }
              }
              JOINT ThumbLeft
              {
                OFFSET -2.159685 -0.778633 -5.285946
                CHANNELS 3 Zrotation Xrotation Yrotation
                End Site
                {
                  OFFSET 0 0 0
                }
              }
            }
          }
        }
      }
      JOINT ShoulderRight
      {
        OFFSET 6.912336 -0.123039 16.046543
        CHANNELS 3 Zrotation Xrotation Yrotation
        JOINT ElbowRight
        {
          OFFSET 1.148006 -29.517290 4.736440
          CHANNELS 3 Zrotation Xrotation Yrotation
          JOINT WristRight
          {
            OFFSET -2.784417 -24.584956 13.849899
            CHANNELS 3 Zrotation Xrotation Yrotation
            JOINT HandRight
            {
              OFFSET 0.200340 -8.919496 2.616946
              CHANNELS 3 Zrotation Xrotation Yrotation
              JOINT HandTipRight
              {
                OFFSET 0.124966 -1.180309 -0.116365
                CHANNELS 3 Zrotation Xrotation Yrotation
                End Site
                {
                  OFFSET 0 0 0
                }
              }
              JOINT ThumbRight
              {
                OFFSET 0.132678 0.301081 -3.092656
                CHANNELS 3 Zrotation Xrotation Yrotation
                End Site
                {
                  OFFSET 0 0 0
                }
              }
            }
          }
        }
      }
    }
  }
  JOINT HipLeft
  {
    OFFSET -1.698332 1.815450 -8.426490
    CHANNELS 3 Zrotation Xrotation Yrotation
    JOINT KneeLeft
    {
      OFFSET 9.205038 -32.874767 -4.211145
      CHANNELS 3 Zrotation Xrotation Yrotation
      JOINT AnkleLeft
      {
        OFFSET 3.498104 -43.419395 0.893620
        CHANNELS 3 Zrotation Xrotation Yrotation
        JOINT FootLeft
        {
          OFFSET 11.053321 -3.906210 -6.447052
          CHANNELS 3 Zrotation Xrotation Yrotation
          End Site
          {
            OFFSET 0 0 0
          }
        }
      }
    }
  }
  JOINT HipRight
  {
    OFFSET 3.234333 -1.365823 1.379336
    CHANNELS 3 Zrotation Xrotation Yrotation
    JOINT KneeRight
    {
      OFFSET -1.849553 -35.096839 -12.990183
      CHANNELS 3 Zrotation Xrotation Yrotation
      JOINT AnkleRight
      {
        OFFSET -16.403651 -35.019762 18.815510
        CHANNELS 3 Zrotation Xrotation Yrotation
        JOINT FootRight
        {
          OFFSET 3.884643 -8.593619 -1.031920
          CHANNELS 3 Zrotation Xrotation Yrotation
          End Site
          {
            OFFSET 0 0 0
          }
        }
      }
    }
  }
}
MOTION
Frames: 11
Frame Time: 0.033333
-71.353464 81.708224 378.018793 3.124964 -1.957100 -63.555773 -0.320817 -0.891926 63.684628 -0.383662 -0.260072 0.071901 5.485699 1.137354 -4.860170 0.000000 0.000000 0.000000 3.009710 5.088749 -2.640682 2.690116 -1.998034 1.476453 14.877859 10.664641 1.617868 -14.243791 -15.911338 -2.795729 0.000000 0.000000 0.000000 0.000000 0.000000 0.000000 -1.877258 -1.583780 -0.246548 -1.436426 -6.730174 0.450739 -1.867062 -43.010356 -3.390068 -3.182799 -46.089249 -13.537550 0.000000 0.000000 0.000000 0.000000 0.000000 0.000000 -6.122412 -14.739026 63.918717 -1.748976 -12.246664 -3.895131 -26.961159 -10.986177 7.313924 0.000000 0.000000 0.000000 15.901247 -5.043456 63.574709 -11.412121 23.923603 -1.247291 34.808979 27.492345 8.735179 0.000000 0.000000 0.000000
-70.065442 81.770704 377.903440 2.675547 -2.916674 -64.542925 -0.275513 -0.852908 64.679982 -0.386538 -0.281007 0.063478 7.676782 1.642939 -6.104271 0.000000 0.000000 0.000000 3.810469 6.885381 -3.088921 4.484840 -2.115743 1.700630 16.805196 15.238849 0.624342 -13.829059 -23.458560 -2.021397 0.000000 0.000000 0.000000 0.000000 0.000000 0.000000 -2.089239 -3.319740 -0.421034 -0.135218 -20.277159 2.502279 -2.569368 -40.800602 -5.267965 11.206343 -51.094936 -26.895697 0.000000 0.000000 0.000000 0.000000 0.000000 0.000000 -8.012861 -15.593297 65.209561 0.060609 -13.728600 -4.695362 -26.948587 -10.364538 7.714368 0.000000 0.000000 0.000000 23.359284 -2.811959 62.895770 -15.017159 34.791948 0.778270 25.447880 21.731499 13.164433 0.000000 0.000000 0.000000
-69.361428 81.834234 377.866047 2.041865 -3.775793 -67.345792 -0.331484 -1.068097 67.467874 -0.402599 -0.276662 0.035833 7.688947 2.581063 -5.571845 0.000000 0.000000 0.000000 4.920065 8.254951 -3.382357 6.439679 -1.856047 1.793456 18.942110 19.209702 -0.501276 -11.697624 -29.838337 -0.024982 0.000000 0.000000 0.000000 0.000000 0.000000 0.000000 -1.538227 -6.450756 -0.610540 3.943903 -37.583076 7.002107 -3.513803 -35.622083 -7.394869 12.784518 -45.740207 -40.657377 0.000000 0.000000 0.000000 0.000000 0.000000 0.000000 -8.467080 -16.553673 68.271876 1.655038 -14.288804 -5.086649 -23.387439 -7.379032 7.929816 0.000000 0.000000 0.000000 29.445154 1.630588 62.511599 -18.938927 42.978821 3.489518 19.687756 15.159377 14.281491 0.000000 0.000000 0.000000
-68.109233 82.253356 377.589410 1.730034 -4.186948 -69.124514 -0.267901 -0.893717 69.235584 -0.417945 -0.282962 0.033085 6.151884 2.673269 -4.170677 0.000000 0.000000 0.000000 5.221558 9.188193 -3.640244 7.583476 -1.762470 1.960357 21.663716 21.483839 -1.311922 -11.906809 -34.861949 1.286875 0.000000 0.000000 0.000000 0.000000 0.000000 0.000000 -0.163597 -10.106083 -0.533313 14.466120 -52.473479 17.763949 -7.117556 -28.971957 -8.967451 -2.136343 -35.361439 -26.344014 0.000000 0.000000 0.000000 0.000000 0.000000 0.000000 -8.204322 -18.554899 70.130156 3.576180 -13.600953 -5.128568 -16.821606 -2.629088 7.952877 0.000000 0.000000 0.000000 32.708539 4.619577 61.898081 -17.329565 48.495712 3.923174 13.287434 8.178074 12.588275 0.000000 0.000000 0.000000
-66.946770 82.866866 377.063700 1.362466 -4.341364 -70.161934 -0.171445 -0.716780 70.250944 -0.514143 -0.309067 0.025161 5.261722 2.795511 -3.256204 0.000000 0.000000 0.000000 4.953798 9.845817 -3.541239 9.101132 -1.755221 1.919918 24.268290 22.135424 -1.504669 -12.712086 -33.617371 1.161354 0.000000 0.000000 0.000000 0.000000 0.000000 0.000000 2.933343 -13.397842 0.005269 29.122272 -60.227460 33.437847 -11.971161 -24.499942 -8.727199 -9.323887 -27.714209 -12.001713 0.000000 0.000000 0.000000 0.000000 0.000000 0.000000 -7.653480 -20.091769 71.212014 4.936388 -12.980522 -5.149297 -8.700575 3.265979 7.775336 0.000000 0.000000 0.000000 32.839242 7.089808 61.238113 -9.671030 49.373600 2.512676 4.467813 -1.014875 6.389107 0.000000 0.000000 0.000000
-64.946479 83.581717 376.556881 1.433129 -4.297748 -69.299491 -0.008063 -0.435199 69.391429 -0.409644 -0.421474 0.044189 2.902546 2.161905 -1.503104 0.000000 0.000000 0.000000 3.572536 9.948806 -3.150997 10.267524 -0.792590 1.626788 25.681930 21.857674 -1.325644 -14.662229 -33.852759 0.516179 0.000000 0.000000 0.000000 0.000000 0.000000 0.000000 8.672714 -14.899325 1.490998 41.110892 -60.603553 48.797392 -14.712437 -23.436090 -8.030733 -11.845846 -19.637565 -6.142532 0.000000 0.000000 0.000000 0.000000 0.000000 0.000000 -8.291799 -22.180358 70.322546 6.431463 -12.516211 -5.391568 -0.331948 8.922762 7.520673 0.000000 0.000000 0.000000 28.203308 7.864612 60.577998 1.881212 43.437663 2.184714 -3.062083 -3.589642 -1.642204 0.000000 0.000000 0.000000
-62.552062 84.174838 376.057098 1.650387 -3.910368 -67.257037 0.065293 -0.295387 67.357098 -0.375921 -0.412970 0.057670 1.524901 0.730651 -0.292317 0.000000 0.000000 0.000000 1.910657 9.593759 -2.581089 11.173308 0.592041 1.315449 25.234529 20.109939 -0.491372 -16.928095 -36.267323 -0.177929 0.000000 0.000000 0.000000 0.000000 0.000000 0.000000 17.904928 -15.372157 3.982095 43.063355 -55.150812 56.330346 -11.957874 -26.371040 -9.023449 -17.089530 -17.011440 -0.889014 0.000000 0.000000 0.000000 0.000000 0.000000 0.000000 -9.085810 -24.342499 68.059288 7.692850 -11.627650 -5.522658 6.872901 13.326286 7.245472 0.000000 0.000000 0.000000 27.096486 6.828767 59.121601 8.608029 42.186400 1.730777 -4.861463 -4.299967 -5.204546 0.000000 0.000000 0.000000
-59.550403 84.758815 375.647883 2.557118 -3.720911 -65.027271 0.001897 -0.238855 65.179700 -0.419769 -0.303795 0.089288 -0.257181 -0.227065 0.611407 0.000000 0.000000 0.000000 -0.104929 9.249275 -2.102361 12.106063 2.544736 1.045883 23.125639 17.537997 0.568862 -15.115982 -36.661165 0.502800 0.000000 0.000000 0.000000 0.000000 0.000000 0.000000 28.058114 -13.582862 6.528644 41.106964 -42.131960 58.057301 -16.416232 -27.128197 -7.000610 -17.405669 -20.556037 -5.703464 0.000000 0.000000 0.000000 0.000000 0.000000 0.000000 -11.000321 -27.363164 65.434138 9.357257 -10.991907 -5.816903 12.244894 16.550436 7.207771 0.000000 0.000000 0.000000 24.621429 4.379537 58.516168 11.821651 38.433123 2.946478 -1.245893 7.456949 -5.389084 0.000000 0.000000 0.000000
-56.268872 85.229684 375.427340 3.259104 -3.120758 -61.747547 -0.024895 -0.082517 61.924469 -0.293384 -0.240994 0.119852 -1.809277 -2.753329 1.811817 0.000000 0.000000 0.000000 -2.699111 7.643190 -1.219186 12.063886 5.354519 0.462130 21.776244 16.037890 0.706136 -13.702506 -35.987240 0.614121 0.000000 0.000000 0.000000 0.000000 0.000000 0.000000 35.359992 -7.186384 6.994949 45.556965 -32.967480 66.472040 -20.354647 -29.147237 -4.663534 -14.735513 -23.201234 -16.336227 0.000000 0.000000 0.000000 0.000000 0.000000 0.000000 -13.644207 -29.490725 61.490836 10.211022 -11.002501 -6.300491 15.726732 18.940208 8.907217 0.000000 0.000000 0.000000 22.728060 0.640100 57.349295 15.443793 36.765548 1.933315 -2.066734 13.953443 -4.665859 0.000000 0.000000 0.000000
-53.125481 85.568415 375.400989 3.721812 -2.288247 -58.031635 -0.046364 0.045168 58.206948 -0.174449 -0.200733 0.140057 -2.602466 -5.595184 2.722298 0.000000 0.000000 0.000000 -5.120009 5.355524 -0.263292 11.226616 8.153430 -0.109569 20.454394 15.343562 0.187779 -11.807384 -37.722914 1.221692 0.000000 0.000000 0.000000 0.000000 0.000000 0.000000 48.020761 -11.297879 12.032709 36.223547 -9.544132 52.016816 0.514020 -32.668376 -4.194959 -19.814786 -25.842545 -21.414833 0.000000 0.000000 0.000000 0.000000 0.000000 0.000000 -16.426157 -30.720682 56.939690 10.528366 -10.984167 -6.717370 17.012288 19.853431 11.530723 0.000000 0.000000 0.000000 21.589050 -2.872134 55.315132 15.944083 35.651045 0.996697 -2.467887 17.517887 -2.646192 0.000000 0.000000 0.000000
-50.411268 85.802810 375.423783 3.895783 -1.596886 -53.844092 -0.173240 -0.005793 54.001530 -0.153375 -0.160383 0.138143 -2.461532 -8.557945 3.587872 0.000000 0.000000 0.000000 -7.082926 3.530701 0.612649 10.621205 10.502244 -0.471349 17.457496 12.194591 0.185711 -9.113659 -35.521685 1.345667 0.000000 0.000000 0.000000 0.000000 0.000000 0.000000 53.787498 -5.196305 11.208401 38.456162 11.526812 42.908494 5.624680 -26.304276 -6.169739 -10.622282 -24.631983 -34.561892 0.000000 0.000000 0.000000 0.000000 0.000000 0.000000 -19.227963 -30.169419 52.097028 9.366815 -11.278653 -7.128747 16.056748 19.104198 15.588434 0.000000 0.000000 0.000000 20.769356 -5.536559 52.127392 14.885724 34.763274 0.609918 0.572343 23.890618 -0.207049 0.000000 0.000000 0.000000
